<mxfile host="app.diagrams.net" modified="2022-08-17T02:35:45.583Z" agent="5.0 (Windows NT 6.1; Win64; x64) AppleWebKit/537.36 (KHTML, like Gecko) Chrome/104.0.0.0 Safari/537.36" etag="5R3gZ4ZnthH1YMjfHhYf" version="20.2.3" type="github">
  <diagram id="prtHgNgQTEPvFCAcTncT" name="Page-1">
    <mxGraphModel dx="904" dy="697" grid="0" gridSize="10" guides="1" tooltips="1" connect="1" arrows="1" fold="1" page="1" pageScale="1" pageWidth="827" pageHeight="1169" math="0" shadow="0">
      <root>
        <mxCell id="0" />
        <mxCell id="1" parent="0" />
        <mxCell id="a72e2ybn-Ix3mcljy6sx-21" value="rom化框架" style="swimlane;startSize=20;horizontal=1;containerType=tree;fillColor=#CCE5FF;strokeColor=#6c8ebf;swimlaneFillColor=#FFFFFF;" parent="1" vertex="1">
          <mxGeometry x="140" y="570" width="630" height="390" as="geometry">
            <mxRectangle x="140" y="570" width="100" height="30" as="alternateBounds" />
          </mxGeometry>
        </mxCell>
        <mxCell id="a72e2ybn-Ix3mcljy6sx-25" value="" style="rounded=1;whiteSpace=wrap;html=1;fillColor=#FFE6CC;fontFamily=Lucida Console;" parent="a72e2ybn-Ix3mcljy6sx-21" vertex="1">
          <mxGeometry x="150" y="288" width="440" height="77" as="geometry" />
        </mxCell>
        <mxCell id="a72e2ybn-Ix3mcljy6sx-27" value="开发时相关" style="rounded=1;whiteSpace=wrap;html=1;labelBackgroundColor=none;fontFamily=Lucida Console;fillColor=#CCE5FF;" parent="a72e2ybn-Ix3mcljy6sx-21" vertex="1">
          <mxGeometry x="50" y="178" width="80" height="80" as="geometry" />
        </mxCell>
        <mxCell id="a72e2ybn-Ix3mcljy6sx-28" value="rom化实现核心&lt;br&gt;" style="rounded=1;whiteSpace=wrap;html=1;fillColor=#FFE6CC;fontFamily=Lucida Console;" parent="a72e2ybn-Ix3mcljy6sx-21" vertex="1">
          <mxGeometry x="50" y="288" width="80" height="78" as="geometry" />
        </mxCell>
        <mxCell id="a72e2ybn-Ix3mcljy6sx-30" value="调用逻辑（ram_table/&lt;br&gt;rom_symbol.ld）" style="rounded=0;whiteSpace=wrap;html=1;labelBackgroundColor=none;fontFamily=Lucida Console;fillColor=#FFFFFF;" parent="a72e2ybn-Ix3mcljy6sx-21" vertex="1">
          <mxGeometry x="162" y="296.5" width="128" height="60" as="geometry" />
        </mxCell>
        <mxCell id="a72e2ybn-Ix3mcljy6sx-32" value="" style="rounded=1;whiteSpace=wrap;html=1;labelBackgroundColor=none;fontFamily=Lucida Console;fillColor=#CCE5FF;" parent="a72e2ybn-Ix3mcljy6sx-21" vertex="1">
          <mxGeometry x="150" y="178" width="440" height="80" as="geometry" />
        </mxCell>
        <mxCell id="a72e2ybn-Ix3mcljy6sx-33" value="rom工程编译链接" style="rounded=0;whiteSpace=wrap;html=1;labelBackgroundColor=none;fontFamily=Lucida Console;fillColor=#FFFFFF;" parent="a72e2ybn-Ix3mcljy6sx-21" vertex="1">
          <mxGeometry x="310" y="308" width="120" height="40" as="geometry" />
        </mxCell>
        <mxCell id="a72e2ybn-Ix3mcljy6sx-34" value="rom化接口同步管理" style="rounded=0;whiteSpace=wrap;html=1;labelBackgroundColor=none;fontFamily=Lucida Console;fillColor=#FFFFFF;" parent="a72e2ybn-Ix3mcljy6sx-21" vertex="1">
          <mxGeometry x="164" y="198" width="116" height="40" as="geometry" />
        </mxCell>
        <mxCell id="a72e2ybn-Ix3mcljy6sx-35" value="开发后相关" style="rounded=1;whiteSpace=wrap;html=1;labelBackgroundColor=none;fontFamily=Lucida Console;fillColor=#CCFFCC;" parent="a72e2ybn-Ix3mcljy6sx-21" vertex="1">
          <mxGeometry x="50" y="68" width="80" height="80" as="geometry" />
        </mxCell>
        <mxCell id="a72e2ybn-Ix3mcljy6sx-36" value="" style="rounded=1;whiteSpace=wrap;html=1;labelBackgroundColor=none;fontFamily=Lucida Console;fillColor=#CCFFCC;" parent="a72e2ybn-Ix3mcljy6sx-21" vertex="1">
          <mxGeometry x="150" y="68" width="440" height="80" as="geometry" />
        </mxCell>
        <mxCell id="a72e2ybn-Ix3mcljy6sx-37" value="rom patch" style="rounded=0;whiteSpace=wrap;html=1;labelBackgroundColor=none;fontFamily=Lucida Console;fillColor=#FFFFFF;" parent="a72e2ybn-Ix3mcljy6sx-21" vertex="1">
          <mxGeometry x="164" y="88" width="116" height="40" as="geometry" />
        </mxCell>
        <mxCell id="a72e2ybn-Ix3mcljy6sx-39" value="拓展结构体成员" style="rounded=0;whiteSpace=wrap;html=1;labelBackgroundColor=none;fontFamily=Lucida Console;fillColor=#FFFFFF;" parent="a72e2ybn-Ix3mcljy6sx-21" vertex="1">
          <mxGeometry x="295" y="88" width="116" height="40" as="geometry" />
        </mxCell>
        <mxCell id="OhsHsxwbeljneb7udllR-3" value="APPOS工程编译链接" style="rounded=0;whiteSpace=wrap;html=1;labelBackgroundColor=none;fontFamily=Lucida Console;fillColor=#FFFFFF;" vertex="1" parent="a72e2ybn-Ix3mcljy6sx-21">
          <mxGeometry x="451" y="308" width="119" height="40" as="geometry" />
        </mxCell>
        <mxCell id="OhsHsxwbeljneb7udllR-1" value="Text" style="text;html=1;resizable=0;autosize=1;align=center;verticalAlign=middle;points=[];fillColor=none;strokeColor=none;rounded=0;labelBackgroundColor=none;fontFamily=Lucida Console;" vertex="1" parent="1">
          <mxGeometry x="10" y="410" width="40" height="20" as="geometry" />
        </mxCell>
      </root>
    </mxGraphModel>
  </diagram>
</mxfile>
